<?xml version="1.0" encoding="iso-8859-1"?>
<!-- Uploaded to: SVG Repo, www.svgrepo.com, Generator: SVG Repo Mixer Tools -->
<!DOCTYPE svg PUBLIC "-//W3C//DTD SVG 1.1//EN" "http://www.w3.org/Graphics/SVG/1.1/DTD/svg11.dtd">
<svg fill="#000000" version="1.1" id="Capa_1" xmlns="http://www.w3.org/2000/svg" xmlns:xlink="http://www.w3.org/1999/xlink" 
	 width="800px" height="800px" viewBox="0 0 27.646 27.647"
	 xml:space="preserve">
<g>
	<g>
		<polygon points="2.17,25.847 6.069,25.847 6.069,14.02 2.17,16.157 		"/>
		<polygon points="7.258,13.37 7.258,25.847 11.156,25.847 11.156,18.424 8.127,12.893 		"/>
		<polygon points="12.344,25.847 16.244,25.847 16.244,17.188 12.344,20.593 		"/>
		<polygon points="17.432,25.847 21.331,25.847 21.331,12.745 17.432,16.151 		"/>
		<polygon points="22.518,11.708 22.518,25.847 26.418,25.847 26.418,13.212 23.799,10.591 		"/>
		<polygon points="12.927,17.938 23.869,8.297 25.719,10.147 27.646,1.799 19.299,3.725 21.023,5.452 13.972,11.665 10.299,5.216 
			0,10.859 1.928,14.381 8.765,10.635 		"/>
	</g>
</g>
</svg>